# AST/ASF file generated using VICON BodyLanguage
# -----------------------------------------------
:version 1.10
:name VICON
:units
  mass 1.0
  length 0.45
  angle deg
:documentation
   .ast/.asf automatically generated from VICON data using
   VICON BodyBuilder and BodyLanguage model FoxedUp or BRILLIANT.MOD
:root
   order TX TY TZ RX RY RZ
   axis XYZ
   position 0 0 0  
   orientation 0 0 0 
:bonedata
  begin
     id 1 
     name lhipjoint
     direction 0.566809 -0.746272 0.349008 
     length 2.40479 
     axis 0 0 0  XYZ
  end
  begin
     id 2 
     name lfemur
     direction 0.34202 -0.939693 0  
     length 7.1578  
     axis 0 0 20  XYZ
    dof rx ry rz
    limits (-160.0 20.0)
           (-70.0 70.0)
           (-60.0 70.0)
  end
  begin
     id 3 
     name ltibia
     direction 0.34202 -0.939693 0   
     length 7.49137   
     axis 0 0 20   XYZ
    dof rx
    limits (-10.0 170.0)
  end
  begin
     id 4 
     name lfoot
     direction 0.0665746 -0.182912 0.980873   
     length 2.36784   
     axis -90 7.62852e-016 20   XYZ
    dof rx rz
    limits (-45.0 90.0)
           (-70.0 20.0)
  end
  begin
     id 5 
     name ltoes
     direction 1.53601e-011 -4.22058e-011 1   
     length 1.18966   
     axis -90 7.62852e-016 20   XYZ
    dof rx
    limits (-90.0 20.0)
  end
  begin
     id 6 
     name rhipjoint
     direction -0.550236 -0.756381 0.353735   
     length 2.37265  
     axis 0 0 0  XYZ 
  end
  begin
     id 7 
     name rfemur
     direction -0.34202 -0.939693 0   
     length 7.43386   
     axis 0 0 -20   XYZ
    dof rx ry rz
    limits (-160.0 20.0)
           (-70.0 70.0)
           (-70.0 60.0)
  end
  begin
     id 8 
     name rtibia
     direction -0.34202 -0.939693 0   
     length 7.50908   
     axis 0 0 -20   XYZ
    dof rx
    limits (-10.0 170.0)
 end
 begin
     id 9 
     name rfoot
     direction -0.0683029 -0.187661 0.979856   
     length 2.41173  
     axis -90 -7.62852e-016 -20   XYZ
    dof rx rz
    limits (-45.0 90.0)
           (-20.0 70.0)
  end
  begin
     id 10 
     name rtoes
     direction -1.53528e-011 -4.21968e-011 1   
     length 1.21082   
     axis -90 -7.62852e-016 -20   XYZ
    dof rx
    limits (-90.0 20.0)
  end
  begin
     id 11 
     name lowerback
     direction 0.013823 0.995423 -0.0945635   
     length 2.04495   
     axis 0 0 0   XYZ
    dof rx ry rz
    limits (-20.0 45.0)
           (-30.0 30.0)
           (-30.0 30.0)
  end
  begin
     id 12 
     name upperback
     direction 0.0276657 0.9994 -0.020853   
     length 2.05008   
     axis 0 0 0   XYZ
    dof rx ry rz
    limits (-20.0 45.0)
           (-30.0 30.0)
           (-30.0 30.0)
  end
  begin
     id 13 
     name thorax
     direction 0.019782 0.999531 0.0233827   
     length 2.06488   
     axis 0 0 0   XYZ
    dof rx ry rz
    limits (-20.0 45.0)
           (-30.0 30.0)
           (-30.0 30.0)
  end
  begin
     id 14 
     name lowerneck
     direction -0.0308541 0.994709 0.0979874   
     length 1.75553   
     axis 0 0 0   XYZ
    dof rx ry rz
    limits (-20.0 45.0)
           (-30.0 30.0)
           (-30.0 30.0)
  end
  begin
     id 15 
     name upperneck
     direction 0.0588398 0.995804 -0.0700903   
     length 1.76878   
     axis 0 0 0   XYZ
    dof rx ry rz
    limits (-20.0 45.0)
           (-30.0 30.0)
           (-30.0 30.0)
  end
  begin
     id 16
     name head
     direction 0.0209966 0.999159 -0.0352225  
     length 1.77193  
     axis 0 0 0   XYZ
    dof rx ry rz
    limits (-20.0 45.0)
           (-30.0 30.0)
           (-30.0 30.0)
  end
  begin
     id 17 
     name lclavicle
     direction 0.938182 0.335073 -0.0868338  
     length 3.58396  
     axis 0 0 0   XYZ
    dof ry rz
    limits (-20.0 10.0)
           (0.0 20.0)
  end
  begin
     id 18 
     name lhumerus
     direction 1 -4.48971e-011 -1.26313e-017   
     length 4.983   
     axis 180 -30 -90   XYZ
    dof rx ry rz
    limits (-60.0 90.0)
           (-90.0 90.0)
           (-90.0 90.0)
  end
  begin
     id 19
     name lradius
     direction 1 -4.48948e-011 -5.89033e-027   
     length 3.48356   
     axis 180 -30 -90   XYZ
    dof rx
    limits (-10.0 170.0)
  end
  begin
     id 20
     name lwrist
     direction 1 -4.48977e-011 -1.48983e-026   
     length 1.74178   
     axis 9.0955e-015 90 90   XYZ
    dof ry
    limits (-180.0 0.0)
 end
  begin
     id 21 
     name lhand
     direction 1 -4.49046e-011 -2.98066e-026   
     length 0.715259   
     axis 1.90115e-014 90 90   XYZ
    dof rx rz
    limits (-90.0 90.0)
           (-45.0 45.0)
  end
  begin
     id 22 
     name lfingers
     direction 1 -4.48907e-011 -5.95731e-026   
     length 0.576661   
     axis 3.80223e-014 90 90   XYZ
    dof rx
    limits (0.0 90.0)
  end
  begin
     id 23
     name lthumb
     direction 0.707107 -6.34963e-011 0.707107   
     length 0.827973   
     axis -90 45 -3.84942e-014   XYZ
    dof rx rz
    limits (-45.0 45.0)
           (-45.0 45.0)
  end
  begin
     id 24 
     name rclavicle
     direction -0.909637 0.398485 -0.11735   
     length 3.44819  
     axis 0 0 0   XYZ 
    dof ry rz
    limits (-10.0 20.0)
           (-20.0 0.0)
  end
  begin
     id 25 
     name rhumerus
     direction -1 -4.48978e-011 -1.09333e-027  
     length 5.2419   
     axis 180 30 90   XYZ
    dof rx ry rz
    limits (-90.0 60.0)
           (-90.0 90.0)
           (-90.0 90.0)
  end
  begin
     id 26 
     name rradius
     direction -1 -4.48953e-011 -7.61841e-027   
     length 3.44417   
     axis 180 30 90   XYZ
    dof rx
    limits (-10.0 170.0)
  end
  begin
     id 27 
     name rwrist
     direction -1 -4.48977e-011 -1.48983e-026   
     length 1.72209   
     axis 9.0955e-015 -90 -90   XYZ
    dof ry
    limits (-180.0 0.0)
  end
  begin
     id 28
     name rhand
     direction -1 -4.49027e-011 -2.98038e-026   
     length 0.622529   
     axis 1.90115e-014 -90 -90   XYZ
    dof rx rz
    limits (-90.0 90.0)
           (-45.0 45.0)
  end
  begin
     id 29
     name rfingers
     direction -1 -4.48838e-011 -5.95531e-026   
     length 0.501899   
     axis 3.80223e-014 -90 -90   XYZ
    dof rx
    limits (0.0 90.0)
  end
  begin
     id 30
     name rthumb
     direction -0.707107 -6.34937e-011 0.707107   
     length 0.720629   
     axis -90 -45 3.84942e-014   XYZ
    dof rx rz
    limits (-45.0 45.0)
           (-45.0 45.0)
  end
:hierarchy
  begin
    root lhipjoint rhipjoint lowerback
    lhipjoint lfemur
    lfemur ltibia
    ltibia lfoot
    lfoot ltoes
    rhipjoint rfemur
    rfemur rtibia
    rtibia rfoot
    rfoot rtoes
    lowerback upperback
    upperback thorax
    thorax lowerneck lclavicle rclavicle
    lowerneck upperneck
    upperneck head
    lclavicle lhumerus
    lhumerus lradius
    lradius lwrist
    lwrist lhand lthumb
    lhand lfingers
    rclavicle rhumerus
    rhumerus rradius
    rradius rwrist
    rwrist rhand rthumb
    rhand rfingers
  end

#!OML:ASF F:\VICON\USERDATA\Patient Classification 1\PLAYGROUND\JustinFriday\JustinFriday.ASF
:FULLY-SPECIFIED
:DEGREES
1123
root 13.3178 26.1798 39.6822 153.511 1.20301 -174.414
lowerback 31.3877 -0.596555 4.42951
upperback 9.51683 -2.20497 3.7877
thorax -6.27483 -2.41918 2.6157
lowerneck 23.4103 15.8508 0.648943
upperneck 0.803239 21.9225 -2.86196
head -2.75631 11.3856 -2.80005
rclavicle 1.5207e-014 -4.69132e-014
rhumerus 92.575 -28.5349 -57.7046
rradius 98.9755
rwrist -3.19924
rhand -27.0034 -29.2498
rfingers 7.12502
rthumb -0.423332 -59.2291
lclavicle 1.5207e-014 -4.69132e-014
lhumerus 51.4061 51.396 22.7748
lradius 99.9943
lwrist 14.9989
lhand -23.6952 12.362
lfingers 7.12502
lthumb 2.77176 42.3238
rfemur -29.7437 -14.7238 11.6662
rtibia 104.292
rfoot 44.3949 -7.97406
rtoes 65.1212
lfemur -36.0551 17.9852 7.45468
ltibia 106.781
lfoot 22.9047 -13.3639
ltoes 5.4813
1124
root 13.3185 26.182 39.6759 153.479 1.1478 -174.628
lowerback 31.3409 -0.542242 4.21334
upperback 9.54722 -2.20618 3.74058
thorax -6.21929 -2.41864 2.68274
lowerneck 23.4211 15.906 0.662296
upperneck 0.901858 22.0165 -2.90335
head -2.7172 11.4403 -2.81388
rclavicle -6.26172e-015 -1.19271e-014
rhumerus 92.7517 -28.4947 -57.9279
rradius 99.0243
rwrist -2.88122
rhand -26.5872 -29.3476
rfingers 7.12502
rthumb -0.0213649 -59.3274
lclavicle -6.26172e-015 -1.19271e-014
lhumerus 51.1586 51.4515 22.505
lradius 99.9705
lwrist 15.0901
lhand -23.8548 12.3305
lfingers 7.12502
lthumb 2.61763 42.2942
rfemur -29.7304 -14.2506 11.72
rtibia 104.073
rfoot 44.5773 -7.8301
rtoes 65.1076
lfemur -35.7773 18.2237 7.61777
ltibia 107.5
lfoot 22.9885 -14.0352
ltoes 5.15536
1125
root 13.3213 26.1854 39.6731 153.44 1.09012 -174.787
lowerback 31.3728 -0.554423 4.09967
upperback 9.55708 -2.25814 3.64325
thorax -6.22551 -2.44056 2.65815
lowerneck 23.5587 16.0065 0.657472
upperneck 0.695375 22.1205 -2.98443
head -2.78774 11.4895 -2.86625
rclavicle -2.74323e-014 6.75868e-014
rhumerus 92.8527 -28.3317 -58.1171
rradius 99.0555
rwrist -2.93013
rhand -26.7211 -29.144
rfingers 7.12502
rthumb -0.150707 -59.1237
lclavicle -2.74323e-014 6.75868e-014
lhumerus 50.8789 51.4852 22.1345
lradius 99.9573
lwrist 15.1702
lhand -23.9169 12.3787
lfingers 7.12502
lthumb 2.55764 42.3432
rfemur -29.6858 -14.3469 11.6463
rtibia 103.8
rfoot 44.6066 -7.21583
rtoes 65.0863
lfemur -35.4721 18.2023 7.74963
ltibia 108.035
lfoot 23.9353 -14.2384
ltoes 8.0579
1126
root 13.3238 26.1817 39.6703 153.481 1.09967 -174.772
lowerback 31.3839 -0.623739 4.19092
upperback 9.53059 -2.31212 3.57353
thorax -6.26459 -2.4601 2.54815
lowerneck 23.6205 16.149 0.572954
upperneck 0.598836 22.2773 -2.91432
head -2.83652 11.5595 -2.8599
rclavicle 1.19271e-014 -7.95139e-016
rhumerus 92.9155 -28.1154 -58.3438
rradius 99.1173
rwrist -2.9639
rhand -26.8625 -29.0283
rfingers 7.12502
rthumb -0.287332 -59.0079
lclavicle 1.19271e-014 -7.95139e-016
lhumerus 50.6281 51.549 21.7487
lradius 99.9505
lwrist 15.3127
lhand -23.9456 12.4036
lfingers 7.12502
lthumb 2.5299 42.3684
rfemur -29.7415 -14.4611 11.8056
rtibia 103.542
rfoot 44.7543 -7.23154
rtoes 65.1115
lfemur -35.3286 17.8629 7.96254
ltibia 108.52
lfoot 24.6498 -14.0886
ltoes 10.6903
1127
root 13.3243 26.1929 39.6687 153.513 1.1029 -174.733
lowerback 31.3915 -0.733784 4.37074
upperback 9.50454 -2.39373 3.48307
thorax -6.3035 -2.49231 2.37352
lowerneck 23.6656 16.2853 0.488635
upperneck 0.557445 22.435 -2.86034
head -2.86397 11.6339 -2.8535
rclavicle -1.66979e-014 3.4191e-014
rhumerus 93.0632 -27.866 -58.7884
rradius 99.1963
rwrist -2.40734
rhand -26.3034 -29.2456
rfingers 7.12502
rthumb 0.252723 -59.2252
lclavicle -1.66979e-014 3.4191e-014
lhumerus 50.4175 51.6804 21.3411
lradius 99.9115
lwrist 15.4969
lhand -24.0462 12.3463
lfingers 7.12502
lthumb 2.43273 42.3122
rfemur -29.7144 -14.4173 12.0347
rtibia 103.166
rfoot 44.9665 -7.21253
rtoes 65.1163
lfemur -35.0891 17.876 8.29273
ltibia 108.924
lfoot 24.8887 -14.4913
ltoes 11.4775
1128
root 13.3227 26.1829 39.6664 153.491 1.07848 -174.717
lowerback 31.4399 -0.856168 4.54713
upperback 9.49848 -2.50082 3.36786
thorax -6.3398 -2.53991 2.18385
lowerneck 23.7177 16.422 0.441663
upperneck 0.50083 22.6 -2.85368
head -2.88798 11.7141 -2.866
rclavicle -1.2424e-014 -2.3059e-014
rhumerus 93.2456 -27.604 -59.2555
rradius 99.2265
rwrist -1.95288
rhand -25.8076 -29.1729
rfingers 7.12502
rthumb 0.73161 -59.1514
lclavicle -1.2424e-014 -2.3059e-014
lhumerus 50.2914 51.7269 21.0534
lradius 99.8932
lwrist 15.5621
lhand -24.145 12.2836
lfingers 7.12502
lthumb 2.33727 42.2505
rfemur -29.7442 -14.6343 12.0867
rtibia 102.888
rfoot 44.9334 -6.7335
rtoes 65.1357
lfemur -34.9208 17.8977 8.66569
ltibia 109.477
lfoot 24.4134 -15.0117
ltoes 8.97271
1129
root 13.3223 26.1796 39.6645 153.514 1.07544 -174.701
lowerback 31.4268 -0.896838 4.60901
upperback 9.49235 -2.53347 3.33861
thorax -6.34308 -2.55319 2.12649
lowerneck 23.7415 16.5018 0.42423
upperneck 0.472505 22.6979 -2.87465
head -2.89573 11.7631 -2.88034
rclavicle 6.65929e-015 -1.66979e-014
rhumerus 93.368 -27.4439 -59.4676
rradius 99.2418
rwrist -1.89615
rhand -25.7368 -28.9814
rfingers 7.12502
rthumb 0.79994 -58.9597
lclavicle 6.65929e-015 -1.66979e-014
lhumerus 50.2567 51.6807 21.0309
lradius 99.9201
lwrist 15.54
lhand -24.0615 12.251
lfingers 7.12502
lthumb 2.41798 42.217
rfemur -29.8411 -14.6031 12.2754
rtibia 102.437
rfoot 45.0735 -6.66692
rtoes 65.1693
lfemur -34.5309 18.4357 9.28633
ltibia 109.966
lfoot 24.4116 -15.8461
ltoes 8.96677
1130
root 13.3218 26.169 39.6627 153.553 1.11286 -174.666
lowerback 31.3357 -0.899972 4.65669
upperback 9.51042 -2.53068 3.34967
thorax -6.28074 -2.55216 2.10389
lowerneck 23.7103 16.4985 0.347053
upperneck 0.432516 22.6657 -2.80835
head -2.92075 11.7399 -2.85213
rclavicle 1.19271e-014 5.56597e-015
rhumerus 93.4727 -27.3414 -59.6362
rradius 99.2955
rwrist -1.65804
rhand -25.6526 -29.0913
rfingers 7.12502
rthumb 0.881296 -59.0692
lclavicle 1.19271e-014 5.56597e-015
lhumerus 50.2477 51.7295 20.9836
lradius 99.8844
lwrist 15.6478
lhand -24.1482 12.2617
lfingers 7.12502
lthumb 2.3342 42.2287
rfemur -30.0583 -14.3484 12.5579
rtibia 101.891
rfoot 45.2757 -6.67423
rtoes 65.2139
lfemur -34.095 18.396 9.72365
ltibia 110.421
lfoot 24.207 -16.8424
ltoes 8.74945
1131
root 13.3218 26.1675 39.6621 153.533 1.11083 -174.655
lowerback 31.2512 -0.944778 4.73583
upperback 9.55232 -2.58256 3.30647
thorax -6.19726 -2.57833 2.02079
lowerneck 23.8089 16.553 0.270409
upperneck 0.252387 22.6938 -2.76589
head -3.00204 11.7441 -2.85435
rclavicle -2.5842e-014 -2.38542e-015
rhumerus 93.5683 -27.171 -59.8554
rradius 99.3655
rwrist -1.31914
rhand -25.5688 -29.1178
rfingers 7.12502
rthumb 0.962214 -59.0954
lclavicle -2.5842e-014 -2.38542e-015
lhumerus 50.2859 51.784 20.9363
lradius 99.8671
lwrist 15.7595
lhand -24.1818 12.3087
lfingers 7.12502
lthumb 2.30182 42.276
rfemur -30.1044 -13.9748 12.8529
rtibia 101.298
rfoot 45.4291 -6.43245
rtoes 65.2358
lfemur -33.8568 18.2393 9.95718
ltibia 110.708
lfoot 24.3626 -17.1088
ltoes 8.38951
1132
root 13.3218 26.1741 39.6616 153.501 1.05065 -174.673
lowerback 31.2157 -0.990974 4.75844
upperback 9.56913 -2.64184 3.26368
thorax -6.16448 -2.6057 1.97754
lowerneck 24.0097 16.6724 0.24056
upperneck 0.0112415 22.8134 -2.8219
head -3.09672 11.799 -2.90709
rclavicle 3.52843e-014 -1.66979e-014
rhumerus 93.6533 -26.9963 -60.0271
rradius 99.3869
rwrist -1.1276
rhand -25.3703 -29.0001
rfingers 7.12502
rthumb 1.15391 -58.9767
lclavicle 3.52843e-014 -1.66979e-014
lhumerus 50.376 51.7502 21.032
lradius 99.8835
lwrist 15.6745
lhand -23.8839 12.3552
lfingers 7.12502
lthumb 2.58945 42.3193
rfemur -30.0834 -14.0992 12.9257
rtibia 100.727
rfoot 45.4999 -5.96969
rtoes 65.2511
lfemur -33.7013 18.4087 10.1685
ltibia 110.834
lfoot 24.291 -17.855
ltoes 6.77962
1133
root 13.3225 26.1762 39.6608 153.58 1.04702 -174.693
lowerback 31.101 -1.00449 4.76024
upperback 9.56324 -2.65481 3.24651
thorax -6.12003 -2.60596 1.95467
lowerneck 24.115 16.7686 0.130475
upperneck -0.207139 22.8815 -2.792
head -3.1917 11.8218 -2.91549
rclavicle 3.98563e-014 -4.69132e-014
rhumerus 93.7256 -26.8196 -60.1374
rradius 99.3473
rwrist -1.22174
rhand -25.4246 -28.6511
rfingers 7.12502
rthumb 1.10149 -58.628
lclavicle 3.98563e-014 -4.69132e-014
lhumerus 50.437 51.7299 21.1091
lradius 99.8504
lwrist 15.4694
lhand -23.7207 12.3829
lfingers 7.12502
lthumb 2.74709 42.3449
rfemur -30.2253 -14.07 13.0741
rtibia 100.159
rfoot 45.6311 -6.1308
rtoes 65.3018
lfemur -33.6223 18.1629 10.1659
ltibia 110.854
lfoot 24.5497 -17.8232
ltoes 7.4557
1134
root 13.3229 26.1732 39.6606 153.67 1.079 -174.757
lowerback 30.9751 -1.04022 4.79296
upperback 9.56097 -2.68981 3.16623
thorax -6.07034 -2.61414 1.85009
lowerneck 24.2188 16.879 0.00549267
upperneck -0.419404 22.968 -2.70936
head -3.29185 11.8507 -2.90929
rclavicle -6.85807e-015 -5.56597e-014
rhumerus 93.8029 -26.5721 -60.3388
rradius 99.3538
rwrist -1.31499
rhand -25.5714 -28.2546
rfingers 7.12502
rthumb 0.95974 -58.2322
lclavicle -6.85807e-015 -5.56597e-014
lhumerus 50.4909 51.7076 21.16
lradius 99.8513
lwrist 15.1992
lhand -23.628 12.3701
lfingers 7.12502
lthumb 2.83663 42.331
rfemur -30.3607 -13.9558 13.1836
rtibia 99.5481
rfoot 45.8014 -6.37387
rtoes 65.3538
lfemur -33.6619 17.8798 10.0539
ltibia 110.841
lfoot 24.9285 -17.7591
ltoes 8.09753
1135
root 13.3212 26.176 39.6628 153.653 1.14271 -174.747
lowerback 30.9724 -1.12632 4.96222
upperback 9.57108 -2.7595 3.05829
thorax -6.0664 -2.64484 1.65592
lowerneck 24.3582 16.9836 -0.0483628
upperneck -0.603757 23.0719 -2.66452
head -3.37586 11.8929 -2.92338
rclavicle 8.94531e-016 2.78299e-015
rhumerus 93.8777 -26.316 -60.6207
rradius 99.3781
rwrist -1.28065
rhand -25.6429 -28.0463
rfingers 7.12502
rthumb 0.890672 -58.0241
lclavicle 8.94531e-016 2.78299e-015
lhumerus 50.5746 51.6296 21.2392
lradius 99.9262
lwrist 15.0059
lhand -23.4917 12.3183
lfingers 7.12502
lthumb 2.96824 42.2774
rfemur -30.377 -13.7723 13.3549
rtibia 98.8181
rfoot 45.8902 -6.44677
rtoes 65.4089
lfemur -33.6181 17.512 10.0375
ltibia 110.799
lfoot 25.3099 -17.4832
ltoes 9.31007
1136
root 13.3183 26.1801 39.6647 153.589 1.18781 -174.716
lowerback 31.011 -1.16498 5.0777
upperback 9.58899 -2.78604 3.02657
thorax -6.06705 -2.66083 1.56522
lowerneck 24.5029 17.0189 -0.0865227
upperneck -0.799041 23.0836 -2.68302
head -3.4581 11.8931 -2.95038
rclavicle 1.36167e-014 1.59028e-015
rhumerus 93.9394 -26.0861 -60.8198
rradius 99.3888
rwrist -1.21822
rhand -25.7589 -27.8959
rfingers 7.12502
rthumb 0.778621 -57.8742
lclavicle 1.36167e-014 1.59028e-015
lhumerus 50.6756 51.5707 21.3701
lradius 99.9674
lwrist 14.9976
lhand -23.4887 12.2885
lfingers 7.12502
lthumb 2.97112 42.2475
rfemur -30.3262 -13.5976 13.5008
rtibia 98.0182
rfoot 45.9359 -6.58505
rtoes 65.4802
lfemur -33.4768 17.2707 10.0986
ltibia 110.708
lfoot 25.5137 -17.2536
ltoes 10.9325
